<?xml version="1.0" encoding="UTF-8" standalone="no"?><svg xmlns="http://www.w3.org/2000/svg" xmlns:xlink="http://www.w3.org/1999/xlink" contentScriptType="application/ecmascript" contentStyleType="text/css" height="385px" preserveAspectRatio="none" style="width:1027px;height:385px;" version="1.1" viewBox="0 0 1027 385" width="1027px" zoomAndPan="magnify"><defs><filter height="300%" id="fk1b1wq8xl2o1" width="300%" x="-1" y="-1"><feGaussianBlur result="blurOut" stdDeviation="2.0"/><feColorMatrix in="blurOut" result="blurOut2" type="matrix" values="0 0 0 0 0 0 0 0 0 0 0 0 0 0 0 0 0 0 .4 0"/><feOffset dx="4.0" dy="4.0" in="blurOut2" result="blurOut3"/><feBlend in="SourceGraphic" in2="blurOut3" mode="normal"/></filter></defs><g><rect fill="#FEFECE" filter="url(#fk1b1wq8xl2o1)" height="366.2969" rx="12.5" ry="12.5" style="stroke: #A80036; stroke-width: 1.5;" width="634.5" x="6" y="8"/><rect fill="#FFFFFF" height="334" rx="12.5" ry="12.5" style="stroke: #FFFFFF; stroke-width: 1.0;" width="628.5" x="9" y="37.2969"/><line style="stroke: #A80036; stroke-width: 1.5;" x1="6" x2="640.5" y1="34.2969" y2="34.2969"/><text fill="#000000" font-family="sans-serif" font-size="14" lengthAdjust="spacingAndGlyphs" textLength="32" x="307.25" y="25.9951">Main</text><ellipse cx="240.25" cy="72.2969" fill="#000000" filter="url(#fk1b1wq8xl2o1)" rx="10" ry="10" style="stroke: none; stroke-width: 1.0;"/><rect fill="#FEFECE" filter="url(#fk1b1wq8xl2o1)" height="50" rx="12.5" ry="12.5" style="stroke: #A80036; stroke-width: 1.5;" width="88" x="268.75" y="47.2969"/><line style="stroke: #A80036; stroke-width: 1.5;" x1="268.75" x2="356.75" y1="73.5938" y2="73.5938"/><text fill="#000000" font-family="sans-serif" font-size="14" lengthAdjust="spacingAndGlyphs" textLength="68" x="278.75" y="65.292">Operating</text><rect fill="#FEFECE" filter="url(#fk1b1wq8xl2o1)" height="208.2969" rx="12.5" ry="12.5" style="stroke: #A80036; stroke-width: 1.5;" width="591" x="17" y="151.2969"/><rect fill="#FFFFFF" height="176" rx="12.5" ry="12.5" style="stroke: #FFFFFF; stroke-width: 1.0;" width="585" x="20" y="180.5938"/><line style="stroke: #A80036; stroke-width: 1.5;" x1="17" x2="608" y1="177.5938" y2="177.5938"/><text fill="#000000" font-family="sans-serif" font-size="14" lengthAdjust="spacingAndGlyphs" textLength="79" x="273" y="169.292">Configuring</text><ellipse cx="38" cy="215.5938" fill="#000000" filter="url(#fk1b1wq8xl2o1)" rx="10" ry="10" style="stroke: none; stroke-width: 1.0;"/><rect fill="#FEFECE" filter="url(#fk1b1wq8xl2o1)" height="50" rx="12.5" ry="12.5" style="stroke: #A80036; stroke-width: 1.5;" width="50" x="66" y="190.5938"/><line style="stroke: #A80036; stroke-width: 1.5;" x1="66" x2="116" y1="216.8906" y2="216.8906"/><text fill="#000000" font-family="sans-serif" font-size="14" lengthAdjust="spacingAndGlyphs" textLength="18" x="82" y="208.5889">T1</text><rect fill="#FEFECE" filter="url(#fk1b1wq8xl2o1)" height="50" rx="12.5" ry="12.5" style="stroke: #A80036; stroke-width: 1.5;" width="73" x="53.75" y="294.5938"/><line style="stroke: #A80036; stroke-width: 1.5;" x1="53.75" x2="126.75" y1="320.8906" y2="320.8906"/><text fill="#000000" font-family="sans-serif" font-size="14" lengthAdjust="spacingAndGlyphs" textLength="53" x="63.75" y="312.5889">T1_Chg</text><rect fill="#FEFECE" filter="url(#fk1b1wq8xl2o1)" height="50" rx="12.5" ry="12.5" style="stroke: #A80036; stroke-width: 1.5;" width="50" x="215" y="190.5938"/><line style="stroke: #A80036; stroke-width: 1.5;" x1="215" x2="265" y1="216.8906" y2="216.8906"/><text fill="#000000" font-family="sans-serif" font-size="14" lengthAdjust="spacingAndGlyphs" textLength="18" x="231" y="208.5889">T2</text><rect fill="#FEFECE" filter="url(#fk1b1wq8xl2o1)" height="50" rx="12.5" ry="12.5" style="stroke: #A80036; stroke-width: 1.5;" width="73" x="203.75" y="294.5938"/><line style="stroke: #A80036; stroke-width: 1.5;" x1="203.75" x2="276.75" y1="320.8906" y2="320.8906"/><text fill="#000000" font-family="sans-serif" font-size="14" lengthAdjust="spacingAndGlyphs" textLength="53" x="213.75" y="312.5889">T2_Chg</text><rect fill="#FEFECE" filter="url(#fk1b1wq8xl2o1)" height="50" rx="12.5" ry="12.5" style="stroke: #A80036; stroke-width: 1.5;" width="50" x="371" y="190.5938"/><line style="stroke: #A80036; stroke-width: 1.5;" x1="371" x2="421" y1="216.8906" y2="216.8906"/><text fill="#000000" font-family="sans-serif" font-size="14" lengthAdjust="spacingAndGlyphs" textLength="29" x="381.5" y="208.5889">RH1</text><rect fill="#FEFECE" filter="url(#fk1b1wq8xl2o1)" height="50" rx="12.5" ry="12.5" style="stroke: #A80036; stroke-width: 1.5;" width="84" x="354.5" y="294.5938"/><line style="stroke: #A80036; stroke-width: 1.5;" x1="354.5" x2="438.5" y1="320.8906" y2="320.8906"/><text fill="#000000" font-family="sans-serif" font-size="14" lengthAdjust="spacingAndGlyphs" textLength="64" x="364.5" y="312.5889">RH1_Chg</text><rect fill="#FEFECE" filter="url(#fk1b1wq8xl2o1)" height="50" rx="12.5" ry="12.5" style="stroke: #A80036; stroke-width: 1.5;" width="52" x="499" y="190.5938"/><line style="stroke: #A80036; stroke-width: 1.5;" x1="499" x2="551" y1="216.8906" y2="216.8906"/><text fill="#000000" font-family="sans-serif" font-size="14" lengthAdjust="spacingAndGlyphs" textLength="32" x="509" y="208.5889">save</text><ellipse cx="525" cy="319.5938" fill="none" filter="url(#fk1b1wq8xl2o1)" rx="10" ry="10" style="stroke: #000000; stroke-width: 1.0;"/><ellipse cx="525.5" cy="320.0938" fill="#000000" rx="6" ry="6" style="stroke: none; stroke-width: 1.0;"/><!--link *start*Configuring to T1--><path d="M48.3516,215.5938 C52.4123,215.5938 56.4731,215.5938 60.5339,215.5938 " fill="none" id="*start*Configuring-T1" style="stroke: #A80036; stroke-width: 1.0;"/><polygon fill="#A80036" points="65.6775,215.5938,56.6775,211.5938,60.6775,215.5938,56.6775,219.5938,65.6775,215.5938" style="stroke: #A80036; stroke-width: 1.0;"/><!--link T1 to T1_Chg--><path d="M71.5157,240.6828 C68.0117,246.2592 64.8792,252.3871 63,258.5938 C59.8137,269.1173 62.8409,280.2099 67.8593,289.9557 " fill="none" id="T1-T1_Chg" style="stroke: #A80036; stroke-width: 1.0;"/><polygon fill="#A80036" points="70.2901,294.3319,69.4165,284.5218,67.8621,289.9609,62.423,288.4065,70.2901,294.3319" style="stroke: #A80036; stroke-width: 1.0;"/><text fill="#000000" font-family="sans-serif" font-size="13" lengthAdjust="spacingAndGlyphs" textLength="23" x="64" y="271.6606">chg</text><!--link T1_Chg to T1_Chg--><path d="M126.3423,309.9033 C136.351,310.3714 144,313.6016 144,319.5938 C144,324.4625 138.951,327.5077 131.689,328.7297 " fill="none" id="T1_Chg-T1_Chg" style="stroke: #A80036; stroke-width: 1.0;"/><polygon fill="#A80036" points="126.3423,329.2843,135.7069,332.3346,131.3156,328.7685,134.8817,324.3773,126.3423,329.2843" style="stroke: #A80036; stroke-width: 1.0;"/><text fill="#000000" font-family="sans-serif" font-size="13" lengthAdjust="spacingAndGlyphs" textLength="28" x="150" y="323.6606">next</text><!--link T1_Chg to T1--><path d="M92.0394,294.1797 C92.4388,288.4171 92.7967,282.2922 93,276.5938 C93.3575,266.571 93.1637,255.6057 92.7825,245.8225 " fill="none" id="T1_Chg-T1" style="stroke: #A80036; stroke-width: 1.0;"/><polygon fill="#A80036" points="92.568,240.8258,88.9579,249.9891,92.7826,245.8211,96.9505,249.6458,92.568,240.8258" style="stroke: #A80036; stroke-width: 1.0;"/><text fill="#000000" font-family="sans-serif" font-size="13" lengthAdjust="spacingAndGlyphs" textLength="20" x="95" y="271.6606">set</text><!--link T1 to T2--><path d="M116.2758,215.5938 C141.963,215.5938 181.781,215.5938 209.274,215.5938 " fill="none" id="T1-T2" style="stroke: #A80036; stroke-width: 1.0;"/><polygon fill="#A80036" points="214.6,215.5938,205.6,211.5938,209.6,215.5938,205.6,219.5938,214.6,215.5938" style="stroke: #A80036; stroke-width: 1.0;"/><text fill="#000000" font-family="sans-serif" font-size="13" lengthAdjust="spacingAndGlyphs" textLength="28" x="151" y="207.6606">next</text><!--link T2 to T2_Chg--><path d="M219.669,240.7818 C213.076,251.4796 208.302,264.3817 212,276.5938 C213.38,281.1518 215.436,285.6674 217.819,289.953 " fill="none" id="T2-T2_Chg" style="stroke: #A80036; stroke-width: 1.0;"/><polygon fill="#A80036" points="220.516,294.5044,219.3687,284.7225,217.9669,290.203,212.4865,288.8011,220.516,294.5044" style="stroke: #A80036; stroke-width: 1.0;"/><text fill="#000000" font-family="sans-serif" font-size="13" lengthAdjust="spacingAndGlyphs" textLength="23" x="213" y="271.6606">chg</text><!--link T2_Chg to T2_Chg--><path d="M276.342,309.9033 C286.351,310.3714 294,313.6016 294,319.5938 C294,324.4625 288.951,327.5077 281.689,328.7297 " fill="none" id="T2_Chg-T2_Chg" style="stroke: #A80036; stroke-width: 1.0;"/><polygon fill="#A80036" points="276.342,329.2843,285.7066,332.3346,281.3153,328.7685,284.8814,324.3773,276.342,329.2843" style="stroke: #A80036; stroke-width: 1.0;"/><text fill="#000000" font-family="sans-serif" font-size="13" lengthAdjust="spacingAndGlyphs" textLength="28" x="300" y="323.6606">next</text><!--link T2_Chg to T2--><path d="M241.437,294.366 C241.923,283.438 242.28,270.3678 242,258.5938 C241.905,254.5914 241.759,250.3762 241.588,246.2232 " fill="none" id="T2_Chg-T2" style="stroke: #A80036; stroke-width: 1.0;"/><polygon fill="#A80036" points="241.36,241.0168,237.7575,250.1831,241.5787,246.012,245.7498,249.8332,241.36,241.0168" style="stroke: #A80036; stroke-width: 1.0;"/><text fill="#000000" font-family="sans-serif" font-size="13" lengthAdjust="spacingAndGlyphs" textLength="20" x="243" y="271.6606">set</text><!--link T2 to RH1--><path d="M265.064,215.5938 C292.47,215.5938 336.383,215.5938 365.701,215.5938 " fill="none" id="T2-RH1" style="stroke: #A80036; stroke-width: 1.0;"/><polygon fill="#A80036" points="370.998,215.5938,361.998,211.5938,365.998,215.5938,361.998,219.5938,370.998,215.5938" style="stroke: #A80036; stroke-width: 1.0;"/><text fill="#000000" font-family="sans-serif" font-size="13" lengthAdjust="spacingAndGlyphs" textLength="28" x="303.5" y="207.6606">next</text><!--link RH1 to RH1_Chg--><path d="M375.669,240.7818 C369.076,251.4796 364.302,264.3817 368,276.5938 C369.38,281.1518 371.436,285.6674 373.819,289.953 " fill="none" id="RH1-RH1_Chg" style="stroke: #A80036; stroke-width: 1.0;"/><polygon fill="#A80036" points="376.516,294.5044,375.3687,284.7225,373.9669,290.203,368.4865,288.8011,376.516,294.5044" style="stroke: #A80036; stroke-width: 1.0;"/><text fill="#000000" font-family="sans-serif" font-size="13" lengthAdjust="spacingAndGlyphs" textLength="23" x="369" y="271.6606">chg</text><!--link RH1_Chg to RH1_Chg--><path d="M437.625,310.0158 C447.605,310.7644 455,313.9571 455,319.5938 C455,324.1736 450.118,327.14 442.935,328.4929 " fill="none" id="RH1_Chg-RH1_Chg" style="stroke: #A80036; stroke-width: 1.0;"/><polygon fill="#A80036" points="437.625,329.1718,447.0597,331.9977,442.5846,328.5375,446.0449,324.0624,437.625,329.1718" style="stroke: #A80036; stroke-width: 1.0;"/><text fill="#000000" font-family="sans-serif" font-size="13" lengthAdjust="spacingAndGlyphs" textLength="28" x="461" y="323.6606">next</text><!--link RH1_Chg to RH1--><path d="M397.437,294.366 C397.923,283.438 398.28,270.3678 398,258.5938 C397.905,254.5914 397.759,250.3762 397.588,246.2232 " fill="none" id="RH1_Chg-RH1" style="stroke: #A80036; stroke-width: 1.0;"/><polygon fill="#A80036" points="397.36,241.0168,393.7575,250.1831,397.5787,246.012,401.7498,249.8332,397.36,241.0168" style="stroke: #A80036; stroke-width: 1.0;"/><text fill="#000000" font-family="sans-serif" font-size="13" lengthAdjust="spacingAndGlyphs" textLength="20" x="399" y="271.6606">set</text><!--link RH1 to save--><path d="M421.179,215.5938 C441.815,215.5938 471.134,215.5938 493.355,215.5938 " fill="none" id="RH1-save" style="stroke: #A80036; stroke-width: 1.0;"/><polygon fill="#A80036" points="498.554,215.5938,489.554,211.5938,493.554,215.5938,489.554,219.5938,498.554,215.5938" style="stroke: #A80036; stroke-width: 1.0;"/><text fill="#000000" font-family="sans-serif" font-size="13" lengthAdjust="spacingAndGlyphs" textLength="28" x="445.5" y="207.6606">next</text><!--link save to *end*Configuring--><path d="M506.205,240.7618 C502.826,246.3333 499.808,252.4391 498,258.5938 C495.746,266.2696 495.746,268.918 498,276.5938 C501.38,288.1026 508.995,299.4409 515.279,307.4305 " fill="none" id="save-*end*Configuring" style="stroke: #A80036; stroke-width: 1.0;"/><polygon fill="#A80036" points="518.597,311.5044,516.0129,302.0005,515.4386,307.6282,509.811,307.0539,518.597,311.5044" style="stroke: #A80036; stroke-width: 1.0;"/><text fill="#000000" font-family="sans-serif" font-size="13" lengthAdjust="spacingAndGlyphs" textLength="30" x="499" y="271.6606">save</text><!--link save to *end*Configuring--><path d="M529.078,240.9608 C529.877,246.7254 530.593,252.863 531,258.5938 C532.12,274.3502 529.835,292.3772 527.77,304.5241 " fill="none" id="save-*end*Configuring" style="stroke: #A80036; stroke-width: 1.0;"/><polygon fill="#A80036" points="526.85,309.6621,532.3742,301.5083,527.7316,304.7404,524.4996,300.0978,526.85,309.6621" style="stroke: #A80036; stroke-width: 1.0;"/><text fill="#000000" font-family="sans-serif" font-size="13" lengthAdjust="spacingAndGlyphs" textLength="41" x="532" y="271.6606">cancel</text><!--link *start*Main to Operating--><path d="M250.375,72.2969 C254.776,72.2969 259.177,72.2969 263.578,72.2969 " fill="none" id="*start*Main-Operating" style="stroke: #A80036; stroke-width: 1.0;"/><polygon fill="#A80036" points="268.744,72.2969,259.744,68.2969,263.744,72.2969,259.744,76.2969,268.744,72.2969" style="stroke: #A80036; stroke-width: 1.0;"/><!--link Configuring to Operating--><path d="M324.009,150.9669 C324.099,138.9269 323.604,126.8309 322.25,115.2969 C321.76,111.1239 321.005,106.7639 320.125,102.4989 " fill="none" id="Configuring-Operating" style="stroke: #A80036; stroke-width: 1.0;"/><polygon fill="#A80036" points="319.042,97.5539,317.0606,107.2014,320.112,102.438,324.8753,105.4894,319.042,97.5539" style="stroke: #A80036; stroke-width: 1.0;"/><text fill="#000000" font-family="sans-serif" font-size="13" lengthAdjust="spacingAndGlyphs" textLength="24" x="324.25" y="128.3638">end</text><!--link Operating to Configuring--><path d="M287.252,97.6999 C283.154,103.0789 279.512,109.0499 277.25,115.2969 C273.683,125.1499 272.236,135.5229 272.309,145.9769 " fill="none" id="Operating-Configuring" style="stroke: #A80036; stroke-width: 1.0;"/><polygon fill="#A80036" points="272.464,151.1139,276.1896,141.9968,272.3126,146.1162,268.1932,142.2392,272.464,151.1139" style="stroke: #A80036; stroke-width: 1.0;"/><text fill="#000000" font-family="sans-serif" font-size="13" lengthAdjust="spacingAndGlyphs" textLength="38" x="278.25" y="128.3638">config</text><!--link Operating to Operating--><path d="M355.841,62.7619 C365.878,63.5829 373.25,66.7619 373.25,72.2969 C373.25,76.7939 368.383,79.7359 361.175,81.1209 " fill="none" id="Operating-Operating" style="stroke: #A80036; stroke-width: 1.0;"/><polygon fill="#A80036" points="355.841,81.8319,365.2911,84.6061,360.7971,81.1704,364.2327,76.6764,355.841,81.8319" style="stroke: #A80036; stroke-width: 1.0;"/><text fill="#000000" font-family="sans-serif" font-size="13" lengthAdjust="spacingAndGlyphs" textLength="46" x="379.25" y="76.3638">actions</text><rect fill="#FEFECE" filter="url(#fk1b1wq8xl2o1)" height="104.2969" rx="12.5" ry="12.5" style="stroke: #A80036; stroke-width: 1.5;" width="339" x="676" y="139"/><rect fill="#FFFFFF" height="72" rx="12.5" ry="12.5" style="stroke: #FFFFFF; stroke-width: 1.0;" width="333" x="679" y="168.2969"/><line style="stroke: #A80036; stroke-width: 1.5;" x1="676" x2="1015" y1="165.2969" y2="165.2969"/><text fill="#000000" font-family="sans-serif" font-size="14" lengthAdjust="spacingAndGlyphs" textLength="80" x="805.5" y="156.9951">BucketFlow</text><ellipse cx="697" cy="203.2969" fill="#000000" filter="url(#fk1b1wq8xl2o1)" rx="10" ry="10" style="stroke: none; stroke-width: 1.0;"/><rect fill="#FEFECE" filter="url(#fk1b1wq8xl2o1)" height="50" rx="12.5" ry="12.5" style="stroke: #A80036; stroke-width: 1.5;" width="72" x="725" y="178.2969"/><line style="stroke: #A80036; stroke-width: 1.5;" x1="725" x2="797" y1="204.5938" y2="204.5938"/><text fill="#000000" font-family="sans-serif" font-size="14" lengthAdjust="spacingAndGlyphs" textLength="52" x="735" y="196.292">Flowing</text><!--link *start*BucketFlow to Flowing--><path d="M707.5,203.2969 C711.5164,203.2969 715.5328,203.2969 719.5493,203.2969 " fill="none" id="*start*BucketFlow-Flowing" style="stroke: #A80036; stroke-width: 1.0;"/><polygon fill="#A80036" points="724.6367,203.2969,715.6367,199.2969,719.6367,203.2969,715.6367,207.2969,724.6367,203.2969" style="stroke: #A80036; stroke-width: 1.0;"/><!--link Flowing to Flowing--><path d="M797.087,193.9682 C807.221,194.3768 815,197.4864 815,203.2969 C815,208.1088 809.665,211.0683 802.076,212.1755 " fill="none" id="Flowing-Flowing" style="stroke: #A80036; stroke-width: 1.0;"/><polygon fill="#A80036" points="797.087,212.6256,806.4096,215.802,802.0668,212.177,805.6919,207.8343,797.087,212.6256" style="stroke: #A80036; stroke-width: 1.0;"/><text fill="#000000" font-family="sans-serif" font-size="13" lengthAdjust="spacingAndGlyphs" textLength="154" x="821" y="207.3638">[InFlowDelay] Bucket++</text><!--
@startuml

  state Main {
     [*] -> Operating
     Configuring - -> Operating : end
     Operating   - -> Configuring : config
     Operating -> Operating :  actions
     state Configuring {
              [*] -> T1 

              T1 - -> T1_Chg : chg
	      T1_Chg -> T1_Chg : next
	      T1_Chg -> T1 : set

	      T1 -> T2 : next
              T2 - -> T2_Chg : chg
	      T2_Chg -> T2_Chg : next
	      T2_Chg -> T2 : set

	      T2 -> RH1 : next
              RH1 - -> RH1_Chg : chg
	      RH1_Chg -> RH1_Chg : next
	      RH1_Chg -> RH1 : set



              RH1 -> save : next
              save - -> [*] : save
              save - -> [*] : cancel
     }
  }


  /'
  
  state Temp_vs_RH {

      ' [*] - -> Normal

      Warm_and_Dry :  t>T1 && rh <  RH1 
      Warm_and_Humid :  t>T1 && rh> RH1 
      Normal :  t < T1 

       Warm_and_Dry -> Warm_and_Humid
      Warm_and_Humid -> Warm_and_Dry  
      Warm_and_Humid - -> Normal 
      Normal  - -> Warm_and_Humid 
      Normal  - -> Warm_and_Dry 
      Warm_and_Dry  - -> Normal  

  }
  '/

  /'
  state Rain {

    [*]  -> NotRaining

    NotRaining -> Raining : [Warm&Dry]/Bucket- -

    HasRained -> Raining : Bucket- -
    Raining -> HasRained

    HasRained - -> NotRaining
  }
  '/

  state BucketFlow {
  

      [*] -> Flowing

      Flowing - -> Flowing : [InFlowDelay] Bucket++

  }


@enduml

PlantUML version 1.2017.16(Sun Sep 03 13:53:37 EEST 2017)
(GPL source distribution)
Java Runtime: Java(TM) SE Runtime Environment
JVM: Java HotSpot(TM) 64-Bit Server VM
Java Version: 1.8.0_151-b12
Operating System: Linux
OS Version: 3.13.0-135-generic
Default Encoding: UTF-8
Language: en
Country: US
--></g></svg>