<?xml version="1.0" encoding="UTF-8" standalone="no"?><svg xmlns="http://www.w3.org/2000/svg" xmlns:xlink="http://www.w3.org/1999/xlink" contentScriptType="application/ecmascript" contentStyleType="text/css" height="453px" preserveAspectRatio="none" style="width:1413px;height:453px;" version="1.1" viewBox="0 0 1413 453" width="1413px" zoomAndPan="magnify"><defs><filter height="300%" id="f9wcf9kdtxlgb" width="300%" x="-1" y="-1"><feGaussianBlur result="blurOut" stdDeviation="2.0"/><feColorMatrix in="blurOut" result="blurOut2" type="matrix" values="0 0 0 0 0 0 0 0 0 0 0 0 0 0 0 0 0 0 .4 0"/><feOffset dx="4.0" dy="4.0" in="blurOut2" result="blurOut3"/><feBlend in="SourceGraphic" in2="blurOut3" mode="normal"/></filter></defs><g><ellipse cx="586" cy="33" fill="#000000" filter="url(#f9wcf9kdtxlgb)" rx="10" ry="10" style="stroke: none; stroke-width: 1.0;"/><rect fill="#FEFECE" filter="url(#f9wcf9kdtxlgb)" height="50" rx="12.5" ry="12.5" style="stroke: #A80036; stroke-width: 1.5;" width="90" x="631" y="8"/><line style="stroke: #A80036; stroke-width: 1.5;" x1="631" x2="721" y1="34.2969" y2="34.2969"/><text fill="#000000" font-family="sans-serif" font-size="14" lengthAdjust="spacingAndGlyphs" textLength="70" x="641" y="25.9951">ShowData</text><rect fill="#FEFECE" filter="url(#f9wcf9kdtxlgb)" height="50" rx="12.5" ry="12.5" style="stroke: #A80036; stroke-width: 1.5;" width="122" x="423" y="136"/><line style="stroke: #A80036; stroke-width: 1.5;" x1="423" x2="545" y1="162.2969" y2="162.2969"/><text fill="#000000" font-family="sans-serif" font-size="14" lengthAdjust="spacingAndGlyphs" textLength="102" x="433" y="153.9951">ChooseMenu1</text><rect fill="#FEFECE" filter="url(#f9wcf9kdtxlgb)" height="50" rx="12.5" ry="12.5" style="stroke: #A80036; stroke-width: 1.5;" width="122" x="727" y="136"/><line style="stroke: #A80036; stroke-width: 1.5;" x1="727" x2="849" y1="162.2969" y2="162.2969"/><text fill="#000000" font-family="sans-serif" font-size="14" lengthAdjust="spacingAndGlyphs" textLength="102" x="737" y="153.9951">ChooseMenu2</text><rect fill="#FEFECE" filter="url(#f9wcf9kdtxlgb)" height="178.2969" rx="12.5" ry="12.5" style="stroke: #A80036; stroke-width: 1.5;" width="680" x="6" y="264"/><rect fill="#FFFFFF" height="146" rx="12.5" ry="12.5" style="stroke: #FFFFFF; stroke-width: 1.0;" width="674" x="9" y="293.2969"/><line style="stroke: #A80036; stroke-width: 1.5;" x1="6" x2="686" y1="290.2969" y2="290.2969"/><text fill="#000000" font-family="sans-serif" font-size="14" lengthAdjust="spacingAndGlyphs" textLength="48" x="322" y="281.9951">Menu1</text><ellipse cx="101" cy="313.2969" fill="#000000" filter="url(#f9wcf9kdtxlgb)" rx="10" ry="10" style="stroke: none; stroke-width: 1.0;"/><rect fill="#FEFECE" filter="url(#f9wcf9kdtxlgb)" height="50" rx="12.5" ry="12.5" style="stroke: #A80036; stroke-width: 1.5;" width="168" x="17.5" y="377.2969"/><line style="stroke: #A80036; stroke-width: 1.5;" x1="17.5" x2="185.5" y1="403.5938" y2="403.5938"/><text fill="#000000" font-family="sans-serif" font-size="14" lengthAdjust="spacingAndGlyphs" textLength="148" x="27.5" y="395.292">Menu1ChoiceCurrent</text><rect fill="#FEFECE" filter="url(#f9wcf9kdtxlgb)" height="50" rx="12.5" ry="12.5" style="stroke: #A80036; stroke-width: 1.5;" width="156" x="263" y="377.2969"/><line style="stroke: #A80036; stroke-width: 1.5;" x1="263" x2="419" y1="403.5938" y2="403.5938"/><text fill="#000000" font-family="sans-serif" font-size="14" lengthAdjust="spacingAndGlyphs" textLength="136" x="273" y="395.292">Menu1ChoiceNext1</text><rect fill="#FEFECE" filter="url(#f9wcf9kdtxlgb)" height="50" rx="12.5" ry="12.5" style="stroke: #A80036; stroke-width: 1.5;" width="156" x="497" y="377.2969"/><line style="stroke: #A80036; stroke-width: 1.5;" x1="497" x2="653" y1="403.5938" y2="403.5938"/><text fill="#000000" font-family="sans-serif" font-size="14" lengthAdjust="spacingAndGlyphs" textLength="136" x="507" y="395.292">Menu1ChoiceNext2</text><!--link *start*Menu1 to Menu1ChoiceCurrent--><path d="M101,323.6079 C101,335.0484 101,355.0134 101,371.8389 " fill="none" id="*start*Menu1-Menu1ChoiceCurrent" style="stroke: #A80036; stroke-width: 1.0;"/><polygon fill="#A80036" points="101,376.9469,105,367.9469,101,371.9469,97,367.9469,101,376.9469" style="stroke: #A80036; stroke-width: 1.0;"/><!--link Menu1ChoiceCurrent to Menu1ChoiceNext1--><path d="M184.603,402.2969 C208.347,402.2969 234.191,402.2969 257.905,402.2969 " fill="none" id="Menu1ChoiceCurrent-Menu1ChoiceNext1" style="stroke: #A80036; stroke-width: 1.0;"/><polygon fill="#A80036" points="262.931,402.2969,253.931,398.2969,257.931,402.2969,253.931,406.2969,262.931,402.2969" style="stroke: #A80036; stroke-width: 1.0;"/><text fill="#000000" font-family="sans-serif" font-size="13" lengthAdjust="spacingAndGlyphs" textLength="57" x="194.5" y="394.3638">&lt;Menu&gt;</text><!--link Menu1ChoiceNext1 to Menu1ChoiceNext2--><path d="M419.244,402.2969 C442.563,402.2969 468.198,402.2969 491.821,402.2969 " fill="none" id="Menu1ChoiceNext1-Menu1ChoiceNext2" style="stroke: #A80036; stroke-width: 1.0;"/><polygon fill="#A80036" points="496.83,402.2969,487.83,398.2969,491.83,402.2969,487.83,406.2969,496.83,402.2969" style="stroke: #A80036; stroke-width: 1.0;"/><text fill="#000000" font-family="sans-serif" font-size="13" lengthAdjust="spacingAndGlyphs" textLength="57" x="429" y="394.3638">&lt;Menu&gt;</text><!--link Menu1ChoiceNext2 to Menu1ChoiceCurrent--><path d="M497.055,377.1884 C459.153,366.2599 412.666,354.7231 370,349.2969 C302.163,340.6696 225.748,358.4168 171.747,375.6533 " fill="none" id="Menu1ChoiceNext2-Menu1ChoiceCurrent" style="stroke: #A80036; stroke-width: 1.0;"/><polygon fill="#A80036" points="166.92,377.2119,176.7135,378.2542,171.6783,375.6762,174.2564,370.6409,166.92,377.2119" style="stroke: #A80036; stroke-width: 1.0;"/><text fill="#000000" font-family="sans-serif" font-size="13" lengthAdjust="spacingAndGlyphs" textLength="57" x="311" y="354.3638">&lt;Menu&gt;</text><rect fill="#FEFECE" filter="url(#f9wcf9kdtxlgb)" height="178.2969" rx="12.5" ry="12.5" style="stroke: #A80036; stroke-width: 1.5;" width="680" x="721" y="264"/><rect fill="#FFFFFF" height="146" rx="12.5" ry="12.5" style="stroke: #FFFFFF; stroke-width: 1.0;" width="674" x="724" y="293.2969"/><line style="stroke: #A80036; stroke-width: 1.5;" x1="721" x2="1401" y1="290.2969" y2="290.2969"/><text fill="#000000" font-family="sans-serif" font-size="14" lengthAdjust="spacingAndGlyphs" textLength="48" x="1037" y="281.9951">Menu2</text><ellipse cx="816" cy="313.2969" fill="#000000" filter="url(#f9wcf9kdtxlgb)" rx="10" ry="10" style="stroke: none; stroke-width: 1.0;"/><rect fill="#FEFECE" filter="url(#f9wcf9kdtxlgb)" height="50" rx="12.5" ry="12.5" style="stroke: #A80036; stroke-width: 1.5;" width="168" x="732.5" y="377.2969"/><line style="stroke: #A80036; stroke-width: 1.5;" x1="732.5" x2="900.5" y1="403.5938" y2="403.5938"/><text fill="#000000" font-family="sans-serif" font-size="14" lengthAdjust="spacingAndGlyphs" textLength="148" x="742.5" y="395.292">Menu2ChoiceCurrent</text><rect fill="#FEFECE" filter="url(#f9wcf9kdtxlgb)" height="50" rx="12.5" ry="12.5" style="stroke: #A80036; stroke-width: 1.5;" width="156" x="978" y="377.2969"/><line style="stroke: #A80036; stroke-width: 1.5;" x1="978" x2="1134" y1="403.5938" y2="403.5938"/><text fill="#000000" font-family="sans-serif" font-size="14" lengthAdjust="spacingAndGlyphs" textLength="136" x="988" y="395.292">Menu2ChoiceNext1</text><rect fill="#FEFECE" filter="url(#f9wcf9kdtxlgb)" height="50" rx="12.5" ry="12.5" style="stroke: #A80036; stroke-width: 1.5;" width="156" x="1212" y="377.2969"/><line style="stroke: #A80036; stroke-width: 1.5;" x1="1212" x2="1368" y1="403.5938" y2="403.5938"/><text fill="#000000" font-family="sans-serif" font-size="14" lengthAdjust="spacingAndGlyphs" textLength="136" x="1222" y="395.292">Menu2ChoiceNext2</text><!--link *start*Menu2 to Menu2ChoiceCurrent--><path d="M816,323.6079 C816,335.0484 816,355.0134 816,371.8389 " fill="none" id="*start*Menu2-Menu2ChoiceCurrent" style="stroke: #A80036; stroke-width: 1.0;"/><polygon fill="#A80036" points="816,376.9469,820,367.9469,816,371.9469,812,367.9469,816,376.9469" style="stroke: #A80036; stroke-width: 1.0;"/><!--link Menu2ChoiceCurrent to Menu2ChoiceNext1--><path d="M899.603,402.2969 C923.347,402.2969 949.191,402.2969 972.905,402.2969 " fill="none" id="Menu2ChoiceCurrent-Menu2ChoiceNext1" style="stroke: #A80036; stroke-width: 1.0;"/><polygon fill="#A80036" points="977.931,402.2969,968.931,398.2969,972.931,402.2969,968.931,406.2969,977.931,402.2969" style="stroke: #A80036; stroke-width: 1.0;"/><text fill="#000000" font-family="sans-serif" font-size="13" lengthAdjust="spacingAndGlyphs" textLength="57" x="909.5" y="394.3638">&lt;Menu&gt;</text><!--link Menu2ChoiceNext1 to Menu2ChoiceNext2--><path d="M1134.244,402.2969 C1157.563,402.2969 1183.198,402.2969 1206.821,402.2969 " fill="none" id="Menu2ChoiceNext1-Menu2ChoiceNext2" style="stroke: #A80036; stroke-width: 1.0;"/><polygon fill="#A80036" points="1211.83,402.2969,1202.83,398.2969,1206.83,402.2969,1202.83,406.2969,1211.83,402.2969" style="stroke: #A80036; stroke-width: 1.0;"/><text fill="#000000" font-family="sans-serif" font-size="13" lengthAdjust="spacingAndGlyphs" textLength="57" x="1144" y="394.3638">&lt;Menu&gt;</text><!--link Menu2ChoiceNext2 to Menu2ChoiceCurrent--><path d="M1212.055,377.1884 C1174.153,366.2599 1127.666,354.7231 1085,349.2969 C1017.163,340.6696 940.748,358.4168 886.747,375.6533 " fill="none" id="Menu2ChoiceNext2-Menu2ChoiceCurrent" style="stroke: #A80036; stroke-width: 1.0;"/><polygon fill="#A80036" points="881.92,377.2119,891.7135,378.2542,886.6783,375.6762,889.2564,370.6409,881.92,377.2119" style="stroke: #A80036; stroke-width: 1.0;"/><text fill="#000000" font-family="sans-serif" font-size="13" lengthAdjust="spacingAndGlyphs" textLength="57" x="1026" y="354.3638">&lt;Menu&gt;</text><!--link *start to ShowData--><path d="M596.195,33 C606.017,33 615.84,33 625.662,33 " fill="none" id="*start-ShowData" style="stroke: #A80036; stroke-width: 1.0;"/><polygon fill="#A80036" points="630.798,33,621.798,29,625.798,33,621.798,37,630.798,33" style="stroke: #A80036; stroke-width: 1.0;"/><!--link ShowData to ChooseMenu1--><path d="M630.67,52.864 C625.114,54.784 619.468,56.555 614,58 C570.125,69.596 441.639,53.634 412,88 C398.583,103.557 412.184,119.827 431.039,132.956 " fill="none" id="ShowData-ChooseMenu1" style="stroke: #A80036; stroke-width: 1.0;"/><polygon fill="#A80036" points="435.397,135.88,430.1511,127.5445,431.2447,133.0946,425.6945,134.1882,435.397,135.88" style="stroke: #A80036; stroke-width: 1.0;"/><text fill="#000000" font-family="sans-serif" font-size="13" lengthAdjust="spacingAndGlyphs" textLength="57" x="413" y="101.0669">&lt;Menu&gt;</text><!--link ChooseMenu1 to ShowData--><path d="M487.754,135.848 C491.401,120.176 498.468,100.43 512,88 C546.8,56.034 569.261,73.209 614,58 C617.927,56.665 621.974,55.232 626.028,53.754 " fill="none" id="ChooseMenu1-ShowData" style="stroke: #A80036; stroke-width: 1.0;"/><polygon fill="#A80036" points="630.786,52.003,620.9583,51.3576,626.0937,53.7299,623.7214,58.8653,630.786,52.003" style="stroke: #A80036; stroke-width: 1.0;"/><text fill="#000000" font-family="sans-serif" font-size="13" lengthAdjust="spacingAndGlyphs" textLength="74" x="513" y="101.0669">&lt;Timeout&gt;</text><!--link ChooseMenu1 to ChooseMenu2--><path d="M522.016,135.949 C564.906,110.899 636.684,78.672 698,98 C719.968,104.925 741.238,119.336 757.58,132.63 " fill="none" id="ChooseMenu1-ChooseMenu2" style="stroke: #A80036; stroke-width: 1.0;"/><polygon fill="#A80036" points="761.626,135.98,757.2443,127.1595,757.7746,132.7915,752.1427,133.3217,761.626,135.98" style="stroke: #A80036; stroke-width: 1.0;"/><text fill="#000000" font-family="sans-serif" font-size="13" lengthAdjust="spacingAndGlyphs" textLength="57" x="639" y="101.0669">&lt;Menu&gt;</text><!--link ChooseMenu2 to ShowData--><path d="M763.517,135.982 C754.38,126.779 744.036,116.071 735,106 C722.383,91.937 708.985,75.704 698.151,62.214 " fill="none" id="ChooseMenu2-ShowData" style="stroke: #A80036; stroke-width: 1.0;"/><polygon fill="#A80036" points="694.875,58.121,697.3768,67.6468,697.9997,62.0244,703.6221,62.6473,694.875,58.121" style="stroke: #A80036; stroke-width: 1.0;"/><text fill="#000000" font-family="sans-serif" font-size="13" lengthAdjust="spacingAndGlyphs" textLength="57" x="736" y="101.0669">&lt;Menu&gt;</text><!--link ChooseMenu2 to ShowData--><path d="M799.547,135.86 C804.868,120.965 808.196,102.081 799,88 C782.853,63.276 752.589,49.799 726.122,42.492 " fill="none" id="ChooseMenu2-ShowData" style="stroke: #A80036; stroke-width: 1.0;"/><polygon fill="#A80036" points="721.229,41.198,728.9071,47.3662,726.0628,42.4764,730.9526,39.6322,721.229,41.198" style="stroke: #A80036; stroke-width: 1.0;"/><text fill="#000000" font-family="sans-serif" font-size="13" lengthAdjust="spacingAndGlyphs" textLength="74" x="805" y="101.0669">&lt;Timeout&gt;</text><!--link ChooseMenu1 to Menu1--><path d="M466.522,186.064 C452.891,204.831 433.027,232.18 413.343,259.281 " fill="none" id="ChooseMenu1-Menu1" style="stroke: #A80036; stroke-width: 1.0;"/><polygon fill="#A80036" points="410.187,263.627,418.7125,258.6959,413.1254,259.5815,412.2397,253.9944,410.187,263.627" style="stroke: #A80036; stroke-width: 1.0;"/><text fill="#000000" font-family="sans-serif" font-size="13" lengthAdjust="spacingAndGlyphs" textLength="62" x="444" y="229.0669">&lt;Select&gt;</text><!--link Menu1 to ShowData--><path d="M478.262,263.908 C491.27,254.148 504.06,244.084 516,234 C538.81,214.735 543.604,208.699 563,186 C572.661,174.694 625.098,103.46 655.03,62.644 " fill="none" id="Menu1-ShowData" style="stroke: #A80036; stroke-width: 1.0;"/><polygon fill="#A80036" points="658.209,58.308,649.6613,63.2006,655.2524,62.3402,656.1128,67.9312,658.209,58.308" style="stroke: #A80036; stroke-width: 1.0;"/><text fill="#000000" font-family="sans-serif" font-size="13" lengthAdjust="spacingAndGlyphs" textLength="74" x="601" y="165.0669">&lt;Timeout&gt;</text><!--link Menu1 to ShowData--><path d="M326.651,263.99 C321.955,223.292 322.685,175.366 341,136 C394.229,21.587 491.85,89.668 614,58 C617.849,57.002 621.786,55.838 625.716,54.571 " fill="none" id="Menu1-ShowData" style="stroke: #A80036; stroke-width: 1.0;"/><polygon fill="#A80036" points="630.683,52.915,620.8799,51.9672,625.9397,54.4966,623.4104,59.5564,630.683,52.915" style="stroke: #A80036; stroke-width: 1.0;"/><text fill="#000000" font-family="sans-serif" font-size="13" lengthAdjust="spacingAndGlyphs" textLength="62" x="342" y="165.0669">&lt;Select&gt;</text><!--link ChooseMenu2 to Menu2--><path d="M804.087,186.032 C814.97,201.069 830.355,220.147 847,234 C858.28,243.388 870.418,252.393 882.977,260.948 " fill="none" id="ChooseMenu2-Menu2" style="stroke: #A80036; stroke-width: 1.0;"/><polygon fill="#A80036" points="887.252,263.831,882.0286,255.4814,883.1072,261.0345,877.5541,262.1131,887.252,263.831" style="stroke: #A80036; stroke-width: 1.0;"/><text fill="#000000" font-family="sans-serif" font-size="13" lengthAdjust="spacingAndGlyphs" textLength="62" x="848" y="229.0669">&lt;Select&gt;</text><!--link Menu2 to ShowData--><path d="M1007.92,263.738 C963.943,191.793 905.992,100.152 889,88 C840.746,53.491 772.52,40.981 726.391,36.477 " fill="none" id="Menu2-ShowData" style="stroke: #A80036; stroke-width: 1.0;"/><polygon fill="#A80036" points="721.159,35.992,729.7501,40.808,726.1375,36.4549,730.4906,32.8423,721.159,35.992" style="stroke: #A80036; stroke-width: 1.0;"/><text fill="#000000" font-family="sans-serif" font-size="13" lengthAdjust="spacingAndGlyphs" textLength="74" x="960" y="165.0669">&lt;Timeout&gt;</text><!--link Menu2 to ShowData--><path d="M1074.48,263.806 C1076.2,221.387 1070.69,172.053 1044,136 C1006.11,84.814 817.835,53.009 726.231,40.323 " fill="none" id="Menu2-ShowData" style="stroke: #A80036; stroke-width: 1.0;"/><polygon fill="#A80036" points="721.141,39.624,729.5135,44.8107,726.0946,40.3039,730.6013,36.885,721.141,39.624" style="stroke: #A80036; stroke-width: 1.0;"/><text fill="#000000" font-family="sans-serif" font-size="13" lengthAdjust="spacingAndGlyphs" textLength="62" x="1067" y="165.0669">&lt;Select&gt;</text><!--
@startuml

[*] -> ShowData
    
ShowData - -> ChooseMenu1 :  <Menu>
ChooseMenu1 -> ChooseMenu2 :  <Menu>
ChooseMenu2 -> ShowData : <Menu>

ChooseMenu1 - -> ShowData : <Timeout>
ChooseMenu2 - -> ShowData : <Timeout>


ChooseMenu1 - -> Menu1 : <Select>
Menu1 -> ShowData : <Timeout>
Menu1 -> ShowData : <Select>

state Menu1 {

    [*] - -> Menu1ChoiceCurrent 

    Menu1ChoiceCurrent -> Menu1ChoiceNext1 : <Menu>
    ' Menu1ChoiceCurrent -> ShowData : <Select>

    Menu1ChoiceNext1  -> Menu1ChoiceNext2 : <Menu>
    ' Menu1ChoiceNext1 -> ShowData : <Select>

    Menu1ChoiceNext2  -> Menu1ChoiceCurrent : <Menu>
    ' Menu1ChoiceNext2 -> ShowData : <Select>

}

ChooseMenu2 - -> Menu2 : <Select>
Menu2 -> ShowData : <Timeout>
Menu2 -> ShowData : <Select>

state Menu2 {

    [*] - -> Menu2ChoiceCurrent 

    Menu2ChoiceCurrent -> Menu2ChoiceNext1 : <Menu>
    ' Menu2ChoiceCurrent -> ShowData : <Select>

    Menu2ChoiceNext1  -> Menu2ChoiceNext2 : <Menu>
    ' Menu2ChoiceNext1 -> ShowData : <Select>

    Menu2ChoiceNext2  -> Menu2ChoiceCurrent : <Menu>
    ' Menu2ChoiceNext2 -> ShowData : <Select>

}






@enduml

PlantUML version 1.2017.16(Sun Sep 03 13:53:37 EEST 2017)
(GPL source distribution)
Java Runtime: Java(TM) SE Runtime Environment
JVM: Java HotSpot(TM) 64-Bit Server VM
Java Version: 1.8.0_144-b01
Operating System: Linux
OS Version: 3.13.0-133-generic
Default Encoding: UTF-8
Language: en
Country: US
--></g></svg>